<svg xmlns="http://www.w3.org/2000/svg" width="40" height="30" viewBox="0 0 40 30" fill="#28394D">
  <path fill-rule="evenodd" clip-rule="evenodd" d="M5 25H1.66667C0.746667 25 0 24.2533 0 23.3333V1.66667C0 0.746667 0.746667 0 1.66667 0H23.3333C24.2533 0 25 0.746667 25 1.66667V5H32.7783C34.64 5 35.445 5.96 36.005 6.845C36.995 8.41167 38.565 10.8983 39.52 12.475C39.8333 12.995 40 13.5917 40 14.2V21.6667C40 23.4817 38.7617 25 36.6667 25H35C35 27.76 32.76 30 30 30C27.24 30 25 27.76 25 25H15C15 27.76 12.76 30 10 30C7.24 30 5 27.76 5 25ZM10 23C11.1033 23 12 23.8967 12 25C12 26.1033 11.1033 27 10 27C8.89667 27 8 26.1033 8 25C8 23.8967 8.89667 23 10 23ZM30 23C31.1033 23 32 23.8967 32 25C32 26.1033 31.1033 27 30 27C28.8967 27 28 26.1033 28 25C28 23.8967 28.8967 23 30 23ZM25 18.3333H3.33333V21.6667H6.275C7.19 20.6433 8.52 20 10 20C11.48 20 12.81 20.6433 13.725 21.6667H26.275C27.19 20.6433 28.52 20 30 20C31.48 20 32.81 20.6433 33.725 21.6667H36.6667V14.0417L33.815 9.16C33.5167 8.64833 32.9683 8.33333 32.3767 8.33333H25V18.3333ZM21.6667 3.33333H3.33333V15H21.6667V3.33333ZM26.6667 10V15H35L32.6217 10.84C32.325 10.32 31.7733 10 31.175 10H26.6667Z" fill="white"/>
</svg>