<svg xmlns="http://www.w3.org/2000/svg" width="37" height="39" viewBox="0 0 37 39" fill="none">
  <path fill-rule="evenodd" clip-rule="evenodd" d="M12.2085 28.2376L4.70208 6.5H1.54167C1.13158 6.5 0.74 6.32938 0.451708 6.02388C0.161875 5.72 0 5.30562 0 4.875C0 3.978 0.689125 3.25 1.54167 3.25H6.86042L15.2918 27.6656C16.5883 27.8297 17.743 28.4781 18.5894 29.4336L35.9455 22.776L37 25.8294L19.9661 32.3635C20.0155 32.6723 20.0417 32.9891 20.0417 33.3125C20.0417 36.452 17.6228 39 14.6458 39C11.6673 39 9.25 36.452 9.25 33.3125C9.25 31.0976 10.454 29.1769 12.2085 28.2376ZM14.6458 31.1805C15.762 31.1805 16.6685 32.136 16.6685 33.3125C16.6685 34.489 15.762 35.4461 14.6458 35.4461C13.5281 35.4461 12.6216 34.489 12.6216 33.3125C12.6216 32.136 13.5281 31.1805 14.6458 31.1805ZM35.1716 20.5985L17.5688 27.352L13.3508 15.1353L30.9536 8.38175L35.1716 20.5985ZM21.7437 15.3741L17.3037 17.0771L19.4127 23.1855L31.2203 18.6566L29.1113 12.5483L24.6405 14.2626L25.695 17.316L22.7982 18.4291L21.7437 15.3741ZM25.863 8.606L12.8236 13.6077L9.85279 5.00175L22.8907 0L25.863 8.606ZM21.0484 4.16487L13.8041 6.94525L14.6674 9.44287L21.9102 6.66412L21.0484 4.16487Z" fill="white"/>
</svg>