<svg xmlns="http://www.w3.org/2000/svg" width="22" height="42" viewBox="0 0 22 42" fill="none">
  <path fill-rule="evenodd" clip-rule="evenodd" d="M0.518735 22.1063C0.373224 21.9611 0.257778 21.7887 0.179007 21.5989C0.100237 21.409 0.0596924 21.2055 0.0596924 21C0.0596924 20.7945 0.100237 20.591 0.179007 20.4012C0.257778 20.2113 0.373224 20.0389 0.518735 19.8938L19.2687 1.14376C19.5621 0.850365 19.9601 0.685539 20.375 0.685539C20.7899 0.685539 21.1878 0.850365 21.4812 1.14376C21.7746 1.43716 21.9395 1.83509 21.9395 2.25001C21.9395 2.66494 21.7746 3.06287 21.4812 3.35626L3.83436 21L21.4812 38.6438C21.7746 38.9372 21.9395 39.3351 21.9395 39.75C21.9395 40.1649 21.7746 40.5629 21.4812 40.8563C21.1878 41.1497 20.7899 41.3145 20.375 41.3145C19.9601 41.3145 19.5621 41.1497 19.2687 40.8563L0.518735 22.1063Z" />
</svg>