<svg xmlns="http://www.w3.org/2000/svg" width="40" height="40" viewBox="0 0 40 40" fill="none" className="social-icon">
<path d="M2.225 0H37.8C39.025 0 40 0.975 40 2.2V37.8C40 39 39.025 40 37.8 40H27.6V24.5H32.8L33.575 18.475H27.6V14.625C27.6 12.875 28.1 11.675 30.6 11.675H33.8V6.275C33.25 6.2 31.35 6.05 29.15 6.05C24.525 6.05 21.375 8.85 21.375 14.025V18.475H16.15V24.5H21.375V40H2.225C1.6392 40 1.07702 39.7691 0.660461 39.3572C0.243903 38.9453 0.00658203 38.3858 0 37.8V2.2C0 0.975 1 0 2.225 0Z" />
</svg>