<svg xmlns="http://www.w3.org/2000/svg" width="35" height="40" viewBox="0 0 35 40"  className="social-icon">
  <path fill-rule="evenodd" clip-rule="evenodd" d="M30.625 14.9987C30.6311 17.4094 29.7277 19.7571 28.0496 21.6916L17.5 33.7497L6.95042 21.6916C5.71523 20.2611 4.89355 18.5998 4.55289 16.8443C4.21222 15.0887 4.36228 13.2889 4.99075 11.5927C5.61922 9.89651 6.70815 8.35231 8.16812 7.08695C9.62808 5.82159 11.4174 4.87117 13.3892 4.31376C15.3609 3.75634 17.4588 3.60784 19.5105 3.88045C21.5621 4.15306 23.5091 4.839 25.1915 5.88193C26.8738 6.92485 28.2435 8.29501 29.1881 9.87986C30.1326 11.4647 30.6251 13.219 30.625 14.9987ZM35 14.9987C35 18.3489 33.7196 21.439 31.5583 23.9342L20.2329 36.8748L17.5 40L14.7642 36.8748L3.44167 23.9342C1.79283 22.0276 0.695261 19.813 0.239126 17.4721C-0.217008 15.1313 -0.0186845 12.731 0.817802 10.4687C1.65429 8.2063 3.10507 6.14634 5.05093 4.45805C6.99679 2.76976 9.38221 1.50131 12.0112 0.756944C14.6402 0.0125728 17.4377 -0.186483 20.1738 0.176133C22.91 0.538748 25.5068 1.45269 27.7508 2.84285C29.9947 4.23302 31.8219 6.05974 33.0821 8.17292C34.3423 10.2861 34.9996 12.6254 35 14.9987ZM17.5 19.999C19.0471 19.999 20.5308 19.4722 21.6248 18.5344C22.7188 17.5967 23.3333 16.3249 23.3333 14.9987C23.3333 13.6726 22.7188 12.4007 21.6248 11.463C20.5308 10.5253 19.0471 9.99846 17.5 9.99846C15.9529 9.99846 14.4692 10.5253 13.3752 11.463C12.2812 12.4007 11.6667 13.6726 11.6667 14.9987C11.6667 16.3249 12.2812 17.5967 13.3752 18.5344C14.4692 19.4722 15.9529 19.999 17.5 19.999Z"/>
</svg>