<svg xmlns="http://www.w3.org/2000/svg" width="40" height="30" viewBox="0 0 40 30" className="social-icon">
  <path d="M4 30C2.9 30 1.958 29.6325 1.174 28.8975C0.390003 28.1625 -0.00132994 27.28 3.39559e-06 26.25V3.75C3.39559e-06 2.71875 0.392003 1.83563 1.176 1.10063C1.96 0.365628 2.90134 -0.00124682 4 3.18336e-06H36C37.1 3.18336e-06 38.042 0.367503 38.826 1.1025C39.61 1.8375 40.0013 2.72 40 3.75V26.25C40 27.2812 39.608 28.1644 38.824 28.8994C38.04 29.6344 37.0987 30.0012 36 30H4ZM20 16.875L4 7.5V26.25H36V7.5L20 16.875ZM20 13.125L36 3.75H4L20 13.125ZM4 7.5V3.75V26.25V7.5Z"/>
</svg>