<svg xmlns="http://www.w3.org/2000/svg" width="40" height="40" viewBox="0 0 40 40" className="social-icon">
  <path fill-rule="evenodd" clip-rule="evenodd" d="M5.15075 15.5409C9.24044 24.4492 16.5069 31.5088 25.5267 35.3367L25.5541 35.3481L27.2989 36.1251C28.3766 36.606 29.5869 36.7011 30.7264 36.3944C31.8659 36.0877 32.8653 35.3979 33.5564 34.441L36.466 30.4123C36.5515 30.2937 36.5883 30.1467 36.5688 30.0018C36.5492 29.8568 36.4748 29.7248 36.3609 29.6331L31.2818 25.5314C31.2219 25.483 31.1528 25.4473 31.0787 25.4263C31.0045 25.4053 30.927 25.3996 30.8506 25.4094C30.7742 25.4192 30.7006 25.4444 30.6342 25.4834C30.5678 25.5225 30.51 25.5745 30.4642 25.6365L28.4865 28.3055C28.2534 28.6204 27.9196 28.8459 27.5407 28.9444C27.1617 29.0429 26.7604 29.0086 26.4036 28.847C19.646 25.784 14.2321 20.3669 11.1708 13.6054C11.0094 13.2485 10.975 12.847 11.0735 12.4678C11.172 12.0886 11.3974 11.7546 11.7121 11.5214L14.3772 9.54025C14.4392 9.49445 14.4912 9.43659 14.5302 9.37015C14.5692 9.30371 14.5944 9.23006 14.6042 9.15364C14.614 9.07721 14.6082 8.99959 14.5873 8.92544C14.5664 8.8513 14.5306 8.78216 14.4823 8.72218L10.3852 3.64012C10.2935 3.52616 10.1616 3.45174 10.0167 3.43218C9.87186 3.41263 9.72499 3.44943 9.60641 3.53501L5.55727 6.45993C4.59442 7.15485 3.90176 8.16192 3.59701 9.30999C3.29225 10.4581 3.3942 11.6763 3.88554 12.7577L5.15075 15.5386V15.5409ZM24.1747 38.4856C14.3752 34.3222 6.48129 26.6494 2.03796 16.9691L2.03339 16.9645L0.768172 14.1767C-0.0507473 12.3748 -0.220915 10.3447 0.28658 8.43145C0.794074 6.51819 1.94793 4.83973 3.5521 3.68125L7.60125 0.756328C8.43056 0.15745 9.45777 -0.100527 10.4714 0.0354994C11.4851 0.171526 12.4081 0.691204 13.0504 1.48756L17.1497 6.5719C17.488 6.99139 17.7381 7.47497 17.8849 7.9936C18.0317 8.51223 18.0721 9.05519 18.0039 9.58987C17.9356 10.1245 17.76 10.6399 17.4876 11.1049C17.2153 11.57 16.8518 11.9752 16.4189 12.2961L14.8888 13.4295C17.4758 18.4483 21.5612 22.5361 26.5772 25.1246L27.7122 23.5936C28.033 23.1609 28.4378 22.7974 28.9024 22.5251C29.367 22.2528 29.8818 22.0772 30.4158 22.0089C30.9499 21.9407 31.4923 21.981 32.0104 22.1277C32.5285 22.2744 33.0117 22.5242 33.4308 22.8624L38.5123 26.9641C39.3088 27.6069 39.8286 28.5308 39.9646 29.5456C40.1005 30.5604 39.8423 31.5887 39.2431 32.4187L36.3335 36.4496C35.1818 38.0444 33.5167 39.1941 31.6178 39.7055C29.7189 40.2169 27.702 40.0589 25.9058 39.258L24.1747 38.4856Z"/>
</svg>