<svg xmlns="http://www.w3.org/2000/svg" width="28" height="32" viewBox="0 0 28 32" fill="none">
  <path d="M13.8333 21.6667C6.46667 21.6667 0.5 24.65 0.5 28.3333V31.6667H27.1667V28.3333C27.1667 24.65 21.2 21.6667 13.8333 21.6667ZM7.16667 11.6667C7.16667 13.4348 7.86905 15.1305 9.11929 16.3807C10.3695 17.631 12.0652 18.3333 13.8333 18.3333C15.6014 18.3333 17.2971 17.631 18.5474 16.3807C19.7976 15.1305 20.5 13.4348 20.5 11.6667M13 0C12.5 0 12.1667 0.35 12.1667 0.833333V5.83333H10.5V1.66667C10.5 1.66667 6.75 3.1 6.75 7.91667C6.75 7.91667 5.5 8.15 5.5 10H22.1667C22.0833 8.15 20.9167 7.91667 20.9167 7.91667C20.9167 3.1 17.1667 1.66667 17.1667 1.66667V5.83333H15.5V0.833333C15.5 0.35 15.1833 0 14.6667 0H13Z" />
</svg>