<svg xmlns="http://www.w3.org/2000/svg" width="40" height="41" viewBox="0 0 40 41" fill="none">
  <path d="M36.4565 19.7316C35.2124 18.756 33.9239 17.8247 32.591 16.9821L15.2624 5.80698C15.1291 5.71829 15.0403 5.62959 14.9514 5.49656L12.952 2.48104C12.952 2.43669 12.9075 2.43669 12.8631 2.39234C11.4413 0.973275 9.53069 0.175049 7.53124 0.175049C5.5318 0.175049 3.62122 0.973275 2.19939 2.39234C-0.73313 5.31917 -0.73313 10.1085 2.19939 13.0354C2.24382 13.0797 2.28825 13.0797 2.33269 13.1241L5.66509 15.0753L5.79839 15.297C5.48736 15.8292 5.35407 16.2283 5.30964 16.2726C5.22077 16.5387 5.35407 16.8048 5.62066 16.9378L7.17579 17.6473L8.68648 20.2637C8.77534 20.3968 8.90864 20.4855 9.04193 20.5298C9.08636 20.5298 9.1308 20.5298 9.17523 20.5298C9.30853 20.5298 9.39739 20.4855 9.48625 20.4411L10.9081 19.4212L23.749 25.3635C23.8378 25.4079 23.8823 25.4079 23.9711 25.4079C24.06 25.4079 24.1044 25.4079 24.1933 25.3635C24.3266 25.3192 24.4599 25.1861 24.5043 25.0531L24.8153 24.2992L26.4593 23.9445L28.9031 23.4123C29.1252 23.368 29.303 23.1462 29.3474 22.9245C29.3918 22.7028 29.2585 22.4367 29.0364 22.348L27.1702 21.5498L25.9261 21.062C25.8817 20.9733 25.7928 20.8846 25.6595 20.8402C25.5262 20.7959 13.7073 15.5187 10.5082 13.9666C10.4193 13.9223 10.3305 13.8779 10.1972 13.8336L9.48625 12.5919L9.1308 11.8824C9.08636 11.7937 8.9975 11.705 8.90864 11.6606L5.48736 9.70942C4.42099 8.60077 4.46543 6.87128 5.5318 5.80698C6.06498 5.27483 6.7759 4.96441 7.53124 4.96441C8.24216 4.96441 8.95307 5.23048 9.48625 5.71829L10.6859 7.89124C11.0858 8.64512 11.7079 9.3103 12.4188 9.75376L32.9908 23.3236C35.6123 25.9844 35.6568 30.3303 33.0353 32.991C31.7467 34.3214 29.9695 35.0753 28.0589 35.0753C26.1483 35.0753 24.3266 34.3214 22.9936 32.991L22.3716 32.3702C22.3271 32.3258 22.2383 32.2815 22.1938 32.2371L20.772 31.705L21.4385 31.2172C21.5718 31.1285 21.6606 30.9511 21.6606 30.8181C21.6606 30.6407 21.6162 30.5076 21.4829 30.3746L20.1944 29.0886C20.0167 28.9112 19.7056 28.8668 19.4835 28.9999L16.3732 30.9954C16.2399 31.0841 16.1511 31.2172 16.1511 31.3502C16.1066 31.4833 16.1511 31.6606 16.2399 31.7937L19.5723 36.583C19.5723 36.6274 19.6168 36.6274 19.6168 36.6717C21.8828 38.9334 24.8598 40.175 28.0589 40.175C31.258 40.175 34.2349 38.9334 36.501 36.6717C41.1663 32.0154 41.1663 24.4766 36.501 19.8203C36.501 19.7759 36.501 19.7316 36.4565 19.7316ZM25.704 22.1706L26.2372 22.3923L26.015 22.9245L25.3485 23.0575L25.704 22.1706ZM9.39739 19.1994L8.9975 18.4899L9.84171 18.889L9.39739 19.1994Z"/>
</svg>