<svg xmlns="http://www.w3.org/2000/svg" width="10" height="40" viewBox="0 0 10 40" fill="none">
  <path d="M5 40C6.33028 40 7.56881 39.5196 8.53211 38.6026C9.49541 37.6856 10 36.5065 10 35.2402V30.917C10 29.6507 9.49541 28.4716 8.53211 27.5546C8.07339 27.1179 7.52294 26.7686 6.92661 26.5502C7.52294 26.3319 8.07339 25.9825 8.53211 25.5459C9.49541 24.6288 10 23.4498 10 22.1834V17.8166C10 16.5502 9.49541 15.3712 8.53211 14.4542C8.07339 14.0175 7.52294 13.6681 6.92661 13.4498C7.52294 13.2314 8.07339 12.8821 8.53211 12.4454C9.49541 11.5284 10 10.3493 10 9.08297V4.75983C10 3.49345 9.49541 2.31441 8.53211 1.39738C7.56881 0.480349 6.33028 0 5 0C3.66973 0 2.43119 0.480349 1.46789 1.39738C0.504587 2.31441 0 3.49345 0 4.75983V9.08297C0 10.3493 0.504587 11.5284 1.46789 12.4454C1.92661 12.8821 2.47706 13.2314 3.07339 13.4498C2.47706 13.6681 1.92661 14.0175 1.46789 14.4542C0.504587 15.3712 0 16.5502 0 17.8166V22.1834C0 23.4498 0.504587 24.6288 1.46789 25.5459C1.92661 25.9825 2.47706 26.3319 3.07339 26.5502C2.47706 26.7686 1.92661 27.1179 1.46789 27.5546C0.504587 28.4716 0 29.6507 0 30.917V35.2402C0 36.5065 0.504587 37.6856 1.46789 38.6026C2.43119 39.476 3.66973 40 5 40ZM5 31.8341C5.82569 31.8341 6.51376 31.2227 6.6055 30.4803C6.65138 30.6114 6.69725 30.786 6.69725 30.9607V35.2838C6.69725 36.1572 5.91743 36.8996 5 36.8996C4.08257 36.8996 3.30275 36.1572 3.30275 35.2838V30.917C3.30275 30.7424 3.34862 30.6114 3.3945 30.4367C3.48624 31.2227 4.17431 31.8341 5 31.8341ZM6.6055 22.7074C6.46789 22.0087 5.77982 21.441 5 21.441C4.22018 21.441 3.53211 21.9651 3.3945 22.7074C3.34862 22.5328 3.30275 22.3581 3.30275 22.1834V17.8166C3.30275 17.6419 3.34862 17.4673 3.3945 17.2926C3.53211 17.9913 4.22018 18.559 5 18.559C5.77982 18.559 6.46789 18.0349 6.6055 17.2926C6.65138 17.4673 6.69725 17.6419 6.69725 17.8166V22.1834C6.69725 22.3581 6.65138 22.5328 6.6055 22.7074ZM5 8.16594C4.17431 8.16594 3.48624 8.77729 3.3945 9.51965C3.34862 9.38865 3.30275 9.21397 3.30275 9.0393V4.71616C3.30275 3.84279 4.08257 3.10044 5 3.10044C5.91743 3.10044 6.69725 3.84279 6.69725 4.71616V9.08297C6.69725 9.25764 6.65138 9.38865 6.6055 9.56332C6.51376 8.77729 5.82569 8.16594 5 8.16594Z"/>
</svg>