<svg xmlns="http://www.w3.org/2000/svg" width="33" height="33" viewBox="0 0 33 33" fill="none">
  <path d="M7.16347 32.1751C5.69653 32.1751 4.22959 31.7264 3.08864 30.9787C-0.171224 28.8849 -0.98619 24.8469 1.29571 21.8558L5.85953 15.8736C6.18551 15.4249 6.83749 15.1258 7.48946 15.2754C8.14143 15.4249 8.63041 15.8736 8.7934 16.4718L9.77136 21.108C9.93436 21.8558 9.44538 22.6036 8.46742 22.9027C7.65245 23.0522 6.67449 22.454 6.5115 21.7062L6.34851 20.6593L4.22959 23.6505C3.08864 25.2956 3.41463 27.5389 5.20755 28.5858C7.00048 29.6327 9.44538 29.3336 10.5863 27.6885L30.1455 0.319815C30.6345 -0.128851 31.7754 -0.128851 32.2644 0.46937C32.5904 0.918037 32.7534 1.3667 32.5904 1.96492L13.1942 29.184L13.0312 29.3336C12.0533 30.6796 10.4233 31.5769 8.63041 32.0256C8.14143 32.1751 7.65245 32.1751 7.16347 32.1751Z"/>
</svg>