<svg xmlns="http://www.w3.org/2000/svg" width="30" height="40" viewBox="0 0 30 40" fill="none">
  <path d="M29.0361 0L3.43373 0.166667C3.13253 0.166667 2.89157 0.388889 2.89157 0.666667V14.5C2.89157 14.7778 2.6506 15 2.3494 15H1.50602C0.662651 15 0 15.6111 0 16.3889V18.5556C0 19.3333 0.662651 20 1.50602 20H2.3494C2.71084 20 3.13253 20.1111 3.43373 20.3889L13.4337 29.6111C13.6747 29.8889 13.8554 30.2222 13.8554 30.6111V38.6111C13.8554 39.3889 14.5181 40 15.3614 40H17.7108C18.5542 40 19.2169 39.3889 19.2169 38.6111V30.6111C19.2169 30.2222 19.3373 29.8889 19.6386 29.6111L29.5783 20.4444C29.8193 20.1667 30 19.8333 30 19.4444V0.888889C30 0.388889 29.5783 0 29.0361 0ZM26.9277 20.8889L16.988 29C16.8072 29.1111 16.6265 29.1111 16.4458 29L6.44578 20.8333C6.0241 20.5 6.20482 19.6111 6.74699 19.6111H26.6265C27.1687 19.6111 27.3494 20.5 26.9277 20.8889ZM27.7711 12.3333C27.8313 13.8333 26.5663 15.0556 25.0602 15.0556H7.71084C6.14458 15.0556 4.93976 13.8333 4.93976 12.3889V5.5C4.93976 4 6.20482 2.83333 7.71084 2.83333H25C26.5663 2.83333 27.7711 4.05556 27.7711 5.5V12.3333Z"/>
</svg>